<?xml version="1.0" encoding="utf-8"?>
<!-- Generator: Adobe Illustrator 24.3.0, SVG Export Plug-In . SVG Version: 6.00 Build 0)  -->
<svg version="1.1" xmlns="http://www.w3.org/2000/svg" xmlns:xlink="http://www.w3.org/1999/xlink" x="0px" y="0px"
	 viewBox="0 0 1000 1000" style="enable-background:new 0 0 1000 1000;" xml:space="preserve">
<style type="text/css">
	.st0{fill:#FFFFFF;}
	.st1{display:none;}
	.st2{display:inline;fill:#216D69;}
	.st3{display:inline;fill:#939393;}
	.st4{display:inline;fill:#AA1717;}
	.st5{display:inline;fill:#2DC6EA;}
	.st6{display:inline;fill:#4867AA;}
	.st7{display:inline;}
	.st8{fill:url(#SVGID_1_);}
	.st9{fill:url(#SVGID_2_);}
	.st10{fill:url(#SVGID_3_);}
	.st11{fill:#216D69;}
	.st12{fill:#939393;}
</style>
<g id="ELEMENTS">
	<g>
		<g>
			<path class="st0" d="M764.56,178.78c-32.35,0-58.58,26.23-58.58,58.58c0,32.36,26.23,58.59,58.58,58.59
				c32.36,0,58.59-26.23,58.59-58.59C823.14,205.01,796.91,178.78,764.56,178.78z"/>
			<path class="st0" d="M504.1,253.9C368.4,253.9,258,364.3,258,500c0,135.69,110.4,246.1,246.1,246.1
				c135.69,0,246.1-110.4,246.1-246.1C750.2,364.3,639.79,253.9,504.1,253.9z M504.1,657.64c-86.93,0-157.65-70.71-157.65-157.64
				s70.72-157.64,157.65-157.64c86.92,0,157.63,70.71,157.63,157.64S591.02,657.64,504.1,657.64z"/>
			<path class="st0" d="M699.47,999.65H300.51C135,999.65,0.35,865,0.35,699.49V300.51C0.35,134.99,135,0.35,300.51,0.35h398.97
				c165.51,0,300.18,134.65,300.18,300.16v398.99C999.65,865,864.98,999.65,699.47,999.65z M300.51,94.36
				c-113.68,0-206.15,92.47-206.15,206.14v398.99c0,113.68,92.47,206.15,206.15,206.15h398.97c113.68,0,206.16-92.47,206.16-206.15
				V300.51c0-113.68-92.48-206.14-206.16-206.14H300.51z"/>
		</g>
	</g>
</g>
<g id="Capa_2" class="st1">
	<rect x="897.43" y="127.32" class="st2" width="57.19" height="57.19"/>
	<rect x="897.43" y="58.66" class="st3" width="57.19" height="57.19"/>
	<path class="st4" d="M579.14,99c0-13.68-11.09-24.77-24.77-24.77h-63.33c-13.68,0-24.77,11.09-24.77,24.77v29.47
		c0,13.68,11.09,24.77,24.77,24.77h63.33c13.68,0,24.77-11.09,24.77-24.77V99z M541.9,115.94l-28.4,14.05
		c-1.11,0.6-4.9-0.2-4.9-1.47V99.68c0-1.28,3.81-2.09,4.93-1.45l27.18,14.79C541.85,113.67,543.05,115.32,541.9,115.94z"/>
	<path class="st5" d="M449.72,76.7c-3.46,1.56-7.29,2.51-11.02,3.14c1.77-0.3,4.37-3.51,5.42-4.8c1.59-1.98,2.91-4.23,3.66-6.67
		c0.1-0.19,0.17-0.43-0.02-0.57c-0.24-0.1-0.39-0.05-0.58,0.05c-4.17,2.23-8.48,3.85-13.06,5c-0.38,0.1-0.66,0-0.9-0.24
		c-0.38-0.43-0.74-0.83-1.14-1.17c-1.93-1.64-4-2.93-6.33-3.88c-3.06-1.25-6.41-1.78-9.71-1.56c-3.21,0.21-6.36,1.11-9.21,2.6
		c-2.85,1.49-5.4,3.57-7.43,6.07c-2.1,2.59-3.64,5.64-4.43,8.88c-0.76,3.13-0.7,6.22-0.24,9.38c0.07,0.53,0.02,0.6-0.45,0.53
		c-17.94-2.67-32.81-9.09-44.89-22.85c-0.52-0.6-0.81-0.6-1.24,0.05c-5.28,7.92-2.72,20.64,3.88,26.89
		c0.88,0.83,1.78,1.67,2.76,2.43c-0.36,0.07-4.75-0.4-8.66-2.43c-0.52-0.33-0.79-0.14-0.83,0.45c-0.05,0.86,0.03,1.64,0.14,2.57
		c1.01,8.03,6.57,15.45,14.19,18.35c0.9,0.38,1.9,0.71,2.88,0.88c-1.73,0.38-3.52,0.65-8.49,0.26c-0.62-0.12-0.86,0.19-0.62,0.79
		c3.74,10.19,11.81,13.22,17.85,14.95c0.81,0.14,1.62,0.14,2.43,0.33c-0.05,0.07-0.1,0.07-0.15,0.14c-2,3.06-8.95,5.33-12.19,6.46
		c-5.88,2.06-12.29,2.98-18.51,2.37c-1-0.15-1.2-0.14-1.47,0c-0.27,0.17-0.04,0.41,0.29,0.66c1.26,0.83,2.55,1.57,3.86,2.29
		c3.95,2.09,8.07,3.76,12.37,4.95c22.24,6.14,47.29,1.63,63.99-14.96c13.11-13.03,17.71-31,17.71-48.99c0-0.7,0.83-1.09,1.32-1.46
		c3.41-2.56,6.16-5.63,8.71-9.06c0.57-0.77,0.58-1.45,0.58-1.73c0-0.05,0-0.09,0-0.09C450.17,76.42,450.16,76.5,449.72,76.7z"/>
	<path class="st6" d="M296.72,114.16l1.88-13.07h-11.79v-8.48c0-3.58,1.65-7.06,6.93-7.06h5.36V74.42c0,0-4.86-0.88-9.51-0.88
		c-9.71,0-16.06,6.26-16.06,17.59v9.96h-10.79v13.07h10.79v31.59h13.28v-31.59H296.72z"/>
	<path class="st6" d="M216.01,69.23v67.79c0,10.71,8.68,19.38,19.38,19.38h67.79c10.71,0,19.38-8.68,19.38-19.38V69.23
		c0-10.71-8.68-19.38-19.38-19.38H235.4C224.69,49.85,216.01,58.53,216.01,69.23z M300.48,145.75h-63.93
		c-5.89,0-10.67-4.78-10.67-10.67V71.17c0-5.89,4.78-10.67,10.67-10.67h63.94c5.88,0,10.64,4.76,10.64,10.64v63.96
		C311.12,140.99,306.35,145.75,300.48,145.75z"/>
	<g class="st7">
		<g>
			<linearGradient id="SVGID_1_" gradientUnits="userSpaceOnUse" x1="167.9134" y1="77.6987" x2="175.3194" y2="67.1218">
				<stop  offset="0" style="stop-color:#FDD923"/>
				<stop  offset="0.0375" style="stop-color:#FCC11F"/>
				<stop  offset="0.1164" style="stop-color:#F98216"/>
				<stop  offset="0.1346" style="stop-color:#F87314"/>
				<stop  offset="0.2018" style="stop-color:#F75910"/>
				<stop  offset="0.3446" style="stop-color:#F41805"/>
				<stop  offset="0.3749" style="stop-color:#F30903"/>
				<stop  offset="0.4556" style="stop-color:#EE0811"/>
				<stop  offset="0.6086" style="stop-color:#E20636"/>
				<stop  offset="0.8156" style="stop-color:#CE0372"/>
				<stop  offset="1" style="stop-color:#BA00AC"/>
			</linearGradient>
			<path class="st8" d="M171.62,65.95c-3.57,0-6.46,2.89-6.46,6.46c0,3.57,2.89,6.46,6.46,6.46c3.57,0,6.46-2.89,6.46-6.46
				C178.07,68.85,175.18,65.95,171.62,65.95z"/>
			<linearGradient id="SVGID_2_" gradientUnits="userSpaceOnUse" x1="127.3674" y1="123.5568" x2="158.4651" y2="79.1447">
				<stop  offset="0" style="stop-color:#FDD923"/>
				<stop  offset="0.0375" style="stop-color:#FCC11F"/>
				<stop  offset="0.1164" style="stop-color:#F98216"/>
				<stop  offset="0.1346" style="stop-color:#F87314"/>
				<stop  offset="0.2018" style="stop-color:#F75910"/>
				<stop  offset="0.3446" style="stop-color:#F41805"/>
				<stop  offset="0.3749" style="stop-color:#F30903"/>
				<stop  offset="0.4556" style="stop-color:#EE0811"/>
				<stop  offset="0.6086" style="stop-color:#E20636"/>
				<stop  offset="0.8156" style="stop-color:#CE0372"/>
				<stop  offset="1" style="stop-color:#BA00AC"/>
			</linearGradient>
			<path class="st9" d="M142.92,74.23c-14.95,0-27.12,12.16-27.12,27.12c0,14.95,12.17,27.12,27.12,27.12
				c14.95,0,27.12-12.17,27.12-27.12C170.03,86.4,157.87,74.23,142.92,74.23z M142.92,118.72c-9.58,0-17.37-7.79-17.37-17.37
				s7.79-17.37,17.37-17.37c9.58,0,17.37,7.79,17.37,17.37S152.49,118.72,142.92,118.72z"/>
			<linearGradient id="SVGID_3_" gradientUnits="userSpaceOnUse" x1="105.9392" y1="153.5138" x2="178.9889" y2="49.188">
				<stop  offset="0" style="stop-color:#FDD923"/>
				<stop  offset="0.0375" style="stop-color:#FCC11F"/>
				<stop  offset="0.1164" style="stop-color:#F98216"/>
				<stop  offset="0.1346" style="stop-color:#F87314"/>
				<stop  offset="0.2018" style="stop-color:#F75910"/>
				<stop  offset="0.3446" style="stop-color:#F41805"/>
				<stop  offset="0.3749" style="stop-color:#F30903"/>
				<stop  offset="0.4556" style="stop-color:#EE0811"/>
				<stop  offset="0.6086" style="stop-color:#E20636"/>
				<stop  offset="0.8156" style="stop-color:#CE0372"/>
				<stop  offset="1" style="stop-color:#BA00AC"/>
			</linearGradient>
			<path class="st10" d="M164.44,156.41h-43.96c-18.24,0-33.07-14.84-33.07-33.07V79.37c0-18.24,14.84-33.07,33.07-33.07h43.96
				c18.24,0,33.08,14.84,33.08,33.07v43.96C197.52,141.57,182.68,156.41,164.44,156.41z M120.48,56.65
				c-12.53,0-22.72,10.19-22.72,22.72v43.96c0,12.53,10.19,22.72,22.72,22.72h43.96c12.53,0,22.72-10.19,22.72-22.72V79.37
				c0-12.53-10.19-22.72-22.72-22.72H120.48z"/>
		</g>
	</g>
	<g class="st7">
		<g>
			
				<ellipse transform="matrix(0.2298 -0.9732 0.9732 0.2298 157.2468 656.9098)" class="st11" cx="493.64" cy="229.11" rx="17.16" ry="17.16"/>
		</g>
		<g>
			<path class="st11" d="M493.64,252.14L493.64,252.14c-17.59,0-31.84,14.26-31.84,31.84l0,0c0,4.61,3.74,8.36,8.36,8.36h46.97
				c4.61,0,8.36-3.74,8.36-8.36l0,0C525.48,266.4,511.23,252.14,493.64,252.14z"/>
		</g>
	</g>
	<g class="st7">
		<g>
			<g>
				<path class="st11" d="M289.15,289.43c-3.96,0-8.22-1.5-12.16-4.43c-7.09-5.25-15.26-8.03-23.63-8.03h-2.17
					c-8.37,0-16.54,2.78-23.63,8.03c-6.48,4.8-13.86,5.77-19.25,2.52c-7.26-4.37-11.09-12.61-10.78-23.2
					c0.22-7.66,2.73-16.61,6.38-22.79c3.98-6.74,15.46-17.96,47.6-17.43h1.53c32.15-0.54,43.62,10.69,47.6,17.43
					c3.65,6.18,6.16,15.13,6.38,22.79c0.31,10.59-3.52,18.83-10.79,23.2C294.13,288.81,291.71,289.43,289.15,289.43z M251.2,269.04
					h2.17c10.08,0,19.88,3.32,28.35,9.59c3.01,2.24,7.34,3.96,10.43,2.1c11.02-6.63,7-26.11,1.66-35.15
					c-2.5-4.23-11.46-14.02-40.67-13.53c-0.02,0-0.04,0-0.07,0h-1.59c-0.02,0-0.05,0-0.07,0c-29.21-0.49-38.17,9.3-40.67,13.53
					c-2.47,4.19-5.07,11.68-5.28,18.99c-0.16,5.37,0.92,12.54,6.94,16.17c3.09,1.86,7.42,0.13,10.43-2.1
					C231.31,272.36,241.12,269.04,251.2,269.04z"/>
			</g>
		</g>
		<g>
			<path class="st11" d="M230.81,248.02v-4.59c0-0.5-0.4-0.91-0.91-0.92c0,0,0,0,0,0h-4.6c-0.5,0-0.91,0.41-0.91,0.91c0,0,0,0,0,0
				v4.59c0,0.51-0.41,0.92-0.92,0.92h-4.59c-0.5,0-0.91,0.41-0.91,0.91l0,0v4.6c0,0.5,0.41,0.91,0.91,0.91l0,0h4.6
				c0.5,0,0.91,0.41,0.92,0.91v4.6c0,0.5,0.41,0.91,0.91,0.91h4.6c0.5,0,0.91-0.41,0.91-0.91v-4.6c0-0.5,0.41-0.91,0.91-0.91l0,0
				h4.6c0.5,0,0.91-0.41,0.91-0.91l0,0v-4.6c0-0.5-0.41-0.91-0.91-0.91l0,0h-4.6C231.22,248.93,230.81,248.52,230.81,248.02
				C230.81,248.02,230.81,248.02,230.81,248.02z"/>
		</g>
		<g>
			<circle class="st11" cx="280.88" cy="245.72" r="3.21"/>
		</g>
		<g>
			<circle class="st11" cx="280.88" cy="245.72" r="3.21"/>
		</g>
		<g>
			<circle class="st11" cx="280.88" cy="258.57" r="3.21"/>
		</g>
		<g>
			<circle class="st11" cx="287.3" cy="252.14" r="3.21"/>
		</g>
		<g>
			<circle class="st11" cx="287.3" cy="252.14" r="3.21"/>
		</g>
		<g>
			<circle class="st11" cx="274.46" cy="252.14" r="3.21"/>
		</g>
	</g>
	<g id="packet" class="st7">
		<g>
			<path class="st12" d="M425.21,294.75h-85.17c-5.99,0-10.87-3.99-10.87-8.9v-54.57c0-4.91,4.88-8.9,10.87-8.9h85.17
				c5.99,0,10.87,3.99,10.87,8.9v54.57C436.08,290.76,431.21,294.75,425.21,294.75z M338.56,241.91v43.93c0,0.63,0.7,1.16,1.54,1.16
				h85.19c0.83,0,1.53-0.53,1.53-1.16v-43.93l-36.48,29.54c-2.05,1.66-4.76,2.57-7.64,2.57c-2.88,0-5.6-0.91-7.65-2.57
				L338.56,241.91z M338.58,231.09l42.99,34.81c0.4,0.32,0.88,0.37,1.13,0.37c0.25,0,0.73-0.05,1.12-0.37l42.97-34.8
				c-0.13-0.57-0.76-0.97-1.5-0.97H340.1C339.33,230.13,338.69,230.55,338.58,231.09z"/>
		</g>
	</g>
	<path class="st3" d="M160.78,194.85h-9.75v-4.87c0-2.69-2.18-4.87-4.87-4.87c-2.69,0-4.87,2.18-4.87,4.87v4.87h-29.24v-4.87
		c0-2.69-2.18-4.87-4.87-4.87c-2.69,0-4.87,2.18-4.87,4.87v4.87h-9.75c-8.06,0-14.62,6.56-14.62,14.62v68.23
		c0,8.06,6.56,14.62,14.62,14.62h68.23c8.06,0,14.62-6.56,14.62-14.62v-68.23C175.4,201.41,168.84,194.85,160.78,194.85z
		 M92.56,204.6h9.75v4.87c0,2.69,2.18,4.87,4.87,4.87c2.69,0,4.87-2.18,4.87-4.87v-4.87h29.24v4.87c0,2.69,2.18,4.87,4.87,4.87
		c2.69,0,4.87-2.18,4.87-4.87v-4.87h9.75c2.69,0,4.87,2.19,4.87,4.87v14.62H87.68v-14.62C87.68,206.79,89.87,204.6,92.56,204.6z
		 M160.78,282.57H92.56c-2.69,0-4.87-2.19-4.87-4.87v-43.86h77.97v43.86C165.66,280.39,163.47,282.57,160.78,282.57z"/>
	<g class="st7">
		<path class="st11" d="M130.71,245.75v24.51c0,5.35-2.51,8.03-7.54,8.03h-7.24c-5.03,0-7.54-2.68-7.54-8.03v-24.51
			c0-5.35,2.51-8.03,7.54-8.03h7.24C128.2,237.72,130.71,240.39,130.71,245.75z M122.44,271.23v-26.52c0-0.32-0.11-0.61-0.33-0.85
			c-0.22-0.24-0.5-0.36-0.82-0.36h-3.47c-0.32,0-0.6,0.12-0.82,0.36c-0.22,0.24-0.33,0.53-0.33,0.85v26.52
			c0,0.33,0.11,0.61,0.33,0.85c0.22,0.24,0.5,0.36,0.82,0.36h3.47c0.32,0,0.6-0.12,0.82-0.36
			C122.33,271.84,122.44,271.56,122.44,271.23z"/>
		<path class="st11" d="M144.95,238.39v39.35h-8.27v-39.35H144.95z"/>
	</g>
</g>
</svg>
