<?xml version="1.0" encoding="utf-8"?>
<!-- Generator: Adobe Illustrator 24.3.0, SVG Export Plug-In . SVG Version: 6.00 Build 0)  -->
<svg version="1.1" id="Capa_3" xmlns="http://www.w3.org/2000/svg" xmlns:xlink="http://www.w3.org/1999/xlink" x="0px" y="0px"
	 viewBox="0 0 1253 607" style="enable-background:new 0 0 1253 607;" xml:space="preserve">
<style type="text/css">
	.st0{fill:#41A5A2;}
	.st1{fill:#B7B7B7;}
	.st2{fill:#216D69;}
	.st3{fill:#C4C4C4;}
	.st4{fill:#939393;}
	.st5{fill:#FFFFFF;}
	.st6{fill:#666666;}
</style>
<g>
	<path class="st0" d="M2555.09,235.4h372.31c24.61-1.01,42.34,12.36,53.93,39.11l64.66,124.52L3332.2,235.4l-319.74,320.88
		l-96.18-184.79c-23.14-43.74-37.54-41.7-91-39.91h-129.31l160.44,312.1c22.35,43.1,19.96,49.49-17.56,85.41l-422.25,422.26
		l299.33-452.59c25.54-40.71,25.54-40.71,6.39-86.21L2555.09,235.4z"/>
	<path class="st1" d="M3120.73,970.02l3.49-1.8c3.73-1.92,5.21-6.53,3.29-10.26l-289.42-562.74c-1.92-3.73-6.53-5.21-10.26-3.29
		l-3.49,1.8c-3.73,1.92-5.21,6.53-3.29,10.26l289.42,562.74C3112.39,970.45,3117.01,971.93,3120.73,970.02z"/>
	<circle class="st0" cx="2972.95" cy="678.8" r="35.52"/>
	<path class="st2" d="M2656.27,308.78l168.38-2.63c78.93-2.63,93.83,15.79,109.62,44.72l85.94,169.25L3332.2,235.4l-319.74,320.88
		l-96.18-184.79c-23.14-43.74-37.54-41.7-91-39.91h-129.31l160.44,312.1c22.35,43.1,19.96,49.49-17.56,85.41l-422.25,422.26
		l402.79-436.54c0,0,28.06-27.19,14.91-60.51L2656.27,308.78z"/>
	<path class="st3" d="M3392.51,1120.45H3020.2c-24.61,1.01-42.34-12.36-53.93-39.11l-64.66-124.52l-286.21,163.63l319.74-320.88
		l96.18,184.79c23.14,43.74,37.54,41.7,91,39.91h129.31l-160.44-312.1c-22.35-43.1-19.96-49.49,17.56-85.41L3531,204.5
		l-299.33,452.59c-25.54,40.71-25.54,40.71-6.39,86.21L3392.51,1120.45z"/>
	<path class="st4" d="M3291.33,1047.07l-168.38,2.63c-78.93,2.63-93.83-15.79-109.62-44.72l-85.94-169.25l-311.99,284.73
		l319.74-320.88l96.18,184.79c23.14,43.74,37.54,41.7,91,39.91h129.31l-160.44-312.1c-22.35-43.1-19.96-49.49,17.56-85.41
		L3531,204.5l-402.79,436.54c0,0-28.06,27.19-14.91,60.51L3291.33,1047.07z"/>
</g>
<g>
	<path class="st5" d="M178.82,36.4l-37.48,117.54l42.21,117.9h-53.13l-24.74-82.24l-24.74,82.24H27.45l42.21-117.9L32.9,36.4h49.49
		l23.29,76.05l23.29-76.05H178.82z"/>
	<path class="st5" d="M298.17,36.4c30.08,0,45.12,16.01,45.12,48.03v46.94c0,32.02-15.04,48.03-45.12,48.03h-41.12v92.43h-50.94
		V36.4H298.17z M292.35,137.2V78.61c0-1.94-0.67-3.64-2-5.1c-1.34-1.45-2.97-2.18-4.91-2.18h-28.38v73.14h28.38
		c1.94,0,3.58-0.73,4.91-2.18C291.68,140.84,292.35,139.14,292.35,137.2z"/>
	<path class="st5" d="M419.71,228.9h55.67v42.94H368.77V36.4h50.94V228.9z"/>
	<path class="st5" d="M638.04,80.8v146.65c0,32.02-15.04,48.03-45.12,48.03h-48.4c-30.08,0-45.12-16.01-45.12-48.03V80.8
		c0-32.02,15.04-48.03,45.12-48.03h48.4C622.99,32.76,638.04,48.78,638.04,80.8z M587.09,233.27V74.61c0-1.94-0.67-3.64-2-5.09
		c-1.34-1.46-2.97-2.18-4.91-2.18h-22.93c-1.94,0-3.58,0.73-4.91,2.18c-1.34,1.45-2,3.15-2,5.09v158.65c0,1.94,0.67,3.64,2,5.09
		c1.33,1.45,2.97,2.18,4.91,2.18h22.93c1.94,0,3.58-0.73,4.91-2.18C586.42,236.9,587.09,235.21,587.09,233.27z"/>
	<path class="st5" d="M726.46,175.41v96.43h-50.94V36.4h90.61c30.08,0,45.12,16.01,45.12,48.03v27.29
		c0,19.41-6.91,31.78-20.74,37.12c12.13,4.37,18.19,14.32,18.19,29.84v93.15h-50.94v-89.15c0-4.85-2.31-7.28-6.91-7.28H726.46z
		 M726.46,70.97v68.77h26.93c1.94,0,3.58-0.73,4.91-2.18c1.33-1.45,2-3.15,2-5.09V78.25c0-1.94-0.67-3.64-2-5.09
		c-1.34-1.45-2.97-2.18-4.91-2.18H726.46z"/>
	<path class="st5" d="M937.51,32.76c30.08,0,45.12,16.01,45.12,48.03v191.04h-50.94v-78.96h-36.75v78.96h-50.94V80.8
		c0-32.02,15.04-48.03,45.12-48.03H937.51z M894.94,153.57h36.75V74.61c0-1.94-0.67-3.64-2-5.09c-1.34-1.46-2.97-2.18-4.91-2.18
		h-22.93c-1.94,0-3.58,0.73-4.91,2.18c-1.34,1.45-2,3.15-2,5.09V153.57z"/>
</g>
<g>
	<path class="st5" d="M96.8,466.84v-37.48h67.32v86.6c0,32.02-15.04,48.03-45.12,48.03H73.15c-30.08,0-45.12-16.01-45.12-48.03
		V369.32c0-32.02,15.04-48.03,45.12-48.03H119c30.08,0,45.12,16.01,45.12,48.03v22.2h-48.4v-28.38c0-1.94-0.67-3.64-2-5.09
		c-1.34-1.46-2.97-2.18-4.91-2.18H85.89c-1.94,0-3.58,0.73-4.91,2.18c-1.34,1.45-2,3.15-2,5.09v158.65c0,1.94,0.67,3.64,2,5.09
		c1.33,1.45,2.97,2.18,4.91,2.18h22.93c1.94,0,3.58-0.73,4.91-2.18c1.33-1.46,2-3.15,2-5.09v-54.95H96.8z"/>
	<path class="st5" d="M285.65,321.29c30.08,0,45.12,16.01,45.12,48.03v191.04h-50.94V481.4h-36.75v78.96h-50.94V369.32
		c0-32.02,15.04-48.03,45.12-48.03H285.65z M243.08,442.1h36.75v-78.96c0-1.94-0.67-3.64-2-5.09c-1.34-1.46-2.97-2.18-4.91-2.18
		h-22.93c-1.94,0-3.58,0.73-4.91,2.18c-1.34,1.45-2,3.15-2,5.09V442.1z"/>
	<path class="st5" d="M419.19,560.36h-50.94V369.32c0-32.02,15.04-48.03,45.12-48.03h26.93c17.71,0,30.32,5.82,37.84,17.47
		c7.03-11.65,19.65-17.47,37.84-17.47h26.93c30.08,0,45.12,16.01,45.12,48.03v191.04h-50.94V364.95c0-1.94-0.67-3.64-2-5.09
		c-1.34-1.45-2.97-2.18-4.91-2.18h-19.65c-1.94,0-3.58,0.73-4.91,2.18c-1.34,1.45-2,3.16-2,5.09v195.41h-50.94V364.95
		c0-1.94-0.67-3.64-2-5.09c-1.34-1.45-2.97-2.18-4.91-2.18h-19.65c-1.94,0-3.58,0.73-4.91,2.18c-1.34,1.45-2,3.16-2,5.09V560.36z"/>
	<path class="st5" d="M673.91,518.15h56.4v42.21H622.97V324.93h107.35v41.48h-56.4v55.31h52.76v40.03h-52.76V518.15z"/>
	<path class="st5" d="M886.05,434.46v38.94H761.97v-38.94H886.05z"/>
	<path class="st5" d="M1007.95,324.93h50.94v191.04c0,32.02-15.04,48.03-45.12,48.03h-45.12c-30.08,0-45.12-16.01-45.12-48.03
		V324.93h50.94v195.41c0,1.94,0.67,3.64,2,5.09c1.33,1.46,2.97,2.18,4.91,2.18h19.65c1.94,0,3.58-0.73,4.91-2.18
		c1.33-1.45,2-3.15,2-5.09V324.93z"/>
	<path class="st5" d="M1185.52,324.93c30.08,0,45.12,16.01,45.12,48.03v46.94c0,32.02-15.04,48.03-45.12,48.03h-41.12v92.43h-50.94
		V324.93H1185.52z M1179.7,425.72v-58.58c0-1.94-0.67-3.64-2-5.1c-1.34-1.45-2.97-2.18-4.91-2.18h-28.38V433h28.38
		c1.94,0,3.58-0.73,4.91-2.18C1179.03,429.36,1179.7,427.67,1179.7,425.72z"/>
</g>
<g>
	<path class="st6" d="M-1149.18,13.4l-37.48,117.54l42.21,117.9h-53.13l-24.74-82.24l-24.74,82.24h-53.49l42.21-117.9L-1295.1,13.4
		h49.49l23.29,76.05l23.29-76.05H-1149.18z"/>
	<path class="st6" d="M-1029.83,13.4c30.08,0,45.12,16.01,45.12,48.03v46.94c0,32.02-15.04,48.03-45.12,48.03h-41.12v92.43h-50.94
		V13.4H-1029.83z M-1035.65,114.2V55.61c0-1.94-0.67-3.64-2-5.1c-1.34-1.45-2.97-2.18-4.91-2.18h-28.38v73.14h28.38
		c1.94,0,3.58-0.73,4.91-2.18C-1036.32,117.84-1035.65,116.14-1035.65,114.2z"/>
	<path class="st6" d="M-908.29,205.9h55.67v42.94h-106.62V13.4h50.94V205.9z"/>
	<path class="st6" d="M-689.96,57.8v146.65c0,32.02-15.04,48.03-45.12,48.03h-48.4c-30.08,0-45.12-16.01-45.12-48.03V57.8
		c0-32.02,15.04-48.03,45.12-48.03h48.4C-705.01,9.76-689.96,25.78-689.96,57.8z M-740.91,210.27V51.61c0-1.94-0.67-3.64-2-5.09
		c-1.34-1.46-2.97-2.18-4.91-2.18h-22.93c-1.94,0-3.58,0.73-4.91,2.18c-1.34,1.45-2,3.15-2,5.09v158.65c0,1.94,0.67,3.64,2,5.09
		c1.33,1.45,2.97,2.18,4.91,2.18h22.93c1.94,0,3.58-0.73,4.91-2.18C-741.58,213.9-740.91,212.21-740.91,210.27z"/>
	<path class="st6" d="M-601.54,152.41v96.43h-50.94V13.4h90.61c30.08,0,45.12,16.01,45.12,48.03v27.29
		c0,19.41-6.91,31.78-20.74,37.12c12.13,4.37,18.19,14.32,18.19,29.84v93.15h-50.94v-89.15c0-4.85-2.31-7.28-6.91-7.28H-601.54z
		 M-601.54,47.97v68.77h26.93c1.94,0,3.58-0.73,4.91-2.18c1.33-1.45,2-3.15,2-5.09V55.25c0-1.94-0.67-3.64-2-5.09
		c-1.34-1.45-2.97-2.18-4.91-2.18H-601.54z"/>
	<path class="st6" d="M-390.49,9.76c30.08,0,45.12,16.01,45.12,48.03v191.04h-50.94v-78.96h-36.75v78.96h-50.94V57.8
		c0-32.02,15.04-48.03,45.12-48.03H-390.49z M-433.06,130.57h36.75V51.61c0-1.94-0.67-3.64-2-5.09c-1.34-1.46-2.97-2.18-4.91-2.18
		h-22.93c-1.94,0-3.58,0.73-4.91,2.18c-1.34,1.45-2,3.15-2,5.09V130.57z"/>
</g>
<g>
	<path class="st2" d="M-1231.2,443.84v-37.48h67.32v86.6c0,32.02-15.04,48.03-45.12,48.03h-45.85c-30.08,0-45.12-16.01-45.12-48.03
		V346.32c0-32.02,15.04-48.03,45.12-48.03h45.85c30.08,0,45.12,16.01,45.12,48.03v22.2h-48.4v-28.38c0-1.94-0.67-3.64-2-5.09
		c-1.34-1.46-2.97-2.18-4.91-2.18h-22.93c-1.94,0-3.58,0.73-4.91,2.18c-1.34,1.45-2,3.15-2,5.09v158.65c0,1.94,0.67,3.64,2,5.09
		c1.33,1.45,2.97,2.18,4.91,2.18h22.93c1.94,0,3.58-0.73,4.91-2.18c1.33-1.46,2-3.15,2-5.09v-54.95H-1231.2z"/>
	<path class="st2" d="M-1042.35,298.29c30.08,0,45.12,16.01,45.12,48.03v191.04h-50.94V458.4h-36.75v78.96h-50.94V346.32
		c0-32.02,15.04-48.03,45.12-48.03H-1042.35z M-1084.92,419.1h36.75v-78.96c0-1.94-0.67-3.64-2-5.09c-1.34-1.46-2.97-2.18-4.91-2.18
		h-22.93c-1.94,0-3.58,0.73-4.91,2.18c-1.34,1.45-2,3.15-2,5.09V419.1z"/>
	<path class="st2" d="M-908.81,537.36h-50.94V346.32c0-32.02,15.04-48.03,45.12-48.03h26.93c17.71,0,30.32,5.82,37.84,17.47
		c7.03-11.65,19.65-17.47,37.84-17.47h26.93c30.08,0,45.12,16.01,45.12,48.03v191.04h-50.94V341.95c0-1.94-0.67-3.64-2-5.09
		c-1.34-1.45-2.97-2.18-4.91-2.18h-19.65c-1.94,0-3.58,0.73-4.91,2.18c-1.34,1.45-2,3.16-2,5.09v195.41h-50.94V341.95
		c0-1.94-0.67-3.64-2-5.09c-1.34-1.45-2.97-2.18-4.91-2.18h-19.65c-1.94,0-3.58,0.73-4.91,2.18c-1.34,1.45-2,3.16-2,5.09V537.36z"/>
	<path class="st2" d="M-654.09,495.15h56.4v42.21h-107.35V301.93h107.35v41.48h-56.4v55.31h52.76v40.03h-52.76V495.15z"/>
	<path class="st2" d="M-441.95,411.46v38.94h-124.09v-38.94H-441.95z"/>
	<path class="st2" d="M-320.05,301.93h50.94v191.04c0,32.02-15.04,48.03-45.12,48.03h-45.12c-30.08,0-45.12-16.01-45.12-48.03
		V301.93h50.94v195.41c0,1.94,0.67,3.64,2,5.09c1.33,1.46,2.97,2.18,4.91,2.18h19.65c1.94,0,3.58-0.73,4.91-2.18
		c1.33-1.45,2-3.15,2-5.09V301.93z"/>
	<path class="st2" d="M-142.48,301.93c30.08,0,45.12,16.01,45.12,48.03v46.94c0,32.02-15.04,48.03-45.12,48.03h-41.12v92.43h-50.94
		V301.93H-142.48z M-148.3,402.72v-58.58c0-1.94-0.67-3.64-2-5.1c-1.34-1.45-2.97-2.18-4.91-2.18h-28.38V410h28.38
		c1.94,0,3.58-0.73,4.91-2.18C-148.97,406.36-148.3,404.67-148.3,402.72z"/>
</g>
</svg>
