<?xml version="1.0" encoding="utf-8"?>
<!-- Generator: Adobe Illustrator 24.3.0, SVG Export Plug-In . SVG Version: 6.00 Build 0)  -->
<svg version="1.1" xmlns="http://www.w3.org/2000/svg" xmlns:xlink="http://www.w3.org/1999/xlink" x="0px" y="0px"
	 viewBox="0 0 1280 1280" style="enable-background:new 0 0 1280 1280;" xml:space="preserve">
<style type="text/css">
	.st0{fill:#41A5A2;}
	.st1{fill:#B7B7B7;}
	.st2{fill:#216D69;}
	.st3{fill:#C4C4C4;}
	.st4{fill:#939393;}
	.st5{display:none;}
	.st6{display:inline;}
	.st7{fill:#666666;}
</style>
<g id="Capa_3">
	<g>
		<path class="st0" d="M159.07,131.72h427.64c28.27-1.16,48.63,14.2,61.95,44.92l74.26,143.02l328.74-187.95L684.41,500.28
			L573.93,288.03c-26.57-50.24-43.12-47.9-104.52-45.84H320.89l184.28,358.48c25.67,49.51,22.92,56.84-20.17,98.1l-485,485
			l343.81-519.84c29.34-46.76,29.34-46.76,7.33-99.02L159.07,131.72z"/>
		<path class="st1" d="M807.64,976.08l6.26-3.22c3.66-1.88,5.11-6.42,3.23-10.08L483.55,314.17c-1.88-3.66-6.42-5.11-10.08-3.23
			l-6.26,3.22c-3.66,1.88-5.11,6.42-3.23,10.08l333.58,648.61C799.45,976.5,803.98,977.96,807.64,976.08z"/>
		<circle class="st0" cx="639.03" cy="641.01" r="40.8"/>
		<path class="st2" d="M275.29,216l193.4-3.02c90.65-3.02,107.78,18.13,125.91,51.37l98.71,194.4l358.35-327.04L684.41,500.28
			L573.93,288.03c-26.57-50.24-43.12-47.9-104.52-45.84H320.89l184.28,358.48c25.67,49.51,22.92,56.84-20.17,98.1l-485,485
			l462.64-501.41c0,0,32.23-31.23,17.12-69.5L275.29,216z"/>
		<path class="st3" d="M1120.93,1148.28H693.29c-28.27,1.16-48.63-14.2-61.95-44.92l-74.26-143.02l-328.74,187.95l367.25-368.56
			l110.48,212.25c26.57,50.24,43.12,47.9,104.52,45.84h148.53L774.83,679.33c-25.67-49.51-22.92-56.84,20.17-98.1l485-485
			L936.19,616.07c-29.34,46.76-29.34,46.76-7.33,99.02L1120.93,1148.28z"/>
		<path class="st4" d="M1004.71,1064l-193.4,3.02c-90.65,3.02-107.78-18.13-125.91-51.37l-98.71-194.4l-358.35,327.04l367.25-368.56
			l110.48,212.25c26.57,50.24,43.12,47.9,104.52,45.84h148.53L774.83,679.33c-25.67-49.51-22.92-56.84,20.17-98.1l485-485
			L817.36,597.63c0,0-32.23,31.23-17.12,69.5L1004.71,1064z"/>
	</g>
</g>
<g id="Capa_2" class="st5">
	<g class="st6">
		<path class="st7" d="M-1540.53,574.49l-30.83,96.69l34.72,96.98h-43.7l-20.35-67.65l-20.35,67.65h-44l34.72-96.98l-30.23-96.69
			h40.71l19.16,62.56l19.16-62.56H-1540.53z"/>
		<path class="st7" d="M-1442.35,574.49c24.74,0,37.12,13.17,37.12,39.51v38.61c0,26.34-12.38,39.51-37.12,39.51h-33.82v76.03
			h-41.91V574.49H-1442.35z M-1447.14,657.41v-48.19c0-1.6-0.55-2.99-1.65-4.19c-1.1-1.2-2.45-1.8-4.04-1.8h-23.35v60.17h23.35
			c1.59,0,2.94-0.6,4.04-1.8C-1447.69,660.4-1447.14,659.01-1447.14,657.41z"/>
		<path class="st7" d="M-1342.37,732.84h45.8v35.32h-87.71V574.49h41.91V732.84z"/>
		<path class="st7" d="M-1162.77,611.01v120.63c0,26.34-12.38,39.51-37.12,39.51h-39.81c-24.75,0-37.12-13.17-37.12-39.51V611.01
			c0-26.34,12.37-39.51,37.12-39.51h39.81C-1175.15,571.5-1162.77,584.67-1162.77,611.01z M-1204.68,736.43V605.92
			c0-1.6-0.55-2.99-1.65-4.19c-1.1-1.2-2.45-1.8-4.04-1.8h-18.86c-1.6,0-2.95,0.6-4.04,1.8c-1.1,1.2-1.65,2.59-1.65,4.19v130.51
			c0,1.6,0.55,2.99,1.65,4.19c1.09,1.2,2.44,1.8,4.04,1.8h18.86c1.59,0,2.94-0.6,4.04-1.8
			C-1205.23,739.43-1204.68,738.03-1204.68,736.43z"/>
		<path class="st7" d="M-1090.04,688.84v79.32h-41.91V574.49h74.53c24.74,0,37.12,13.17,37.12,39.51v22.45
			c0,15.97-5.69,26.15-17.06,30.53c9.98,3.59,14.97,11.78,14.97,24.55v76.63h-41.91v-73.34c0-3.99-1.9-5.99-5.69-5.99H-1090.04z
			 M-1090.04,602.93v56.57h22.15c1.59,0,2.94-0.6,4.04-1.8c1.09-1.2,1.65-2.59,1.65-4.19v-44.6c0-1.59-0.55-2.99-1.65-4.19
			c-1.1-1.2-2.45-1.8-4.04-1.8H-1090.04z"/>
		<path class="st7" d="M-916.42,571.5c24.74,0,37.12,13.17,37.12,39.51v157.15h-41.91v-64.96h-30.23v64.96h-41.91V611.01
			c0-26.34,12.37-39.51,37.12-39.51H-916.42z M-951.45,670.88h30.23v-64.96c0-1.6-0.55-2.99-1.65-4.19c-1.1-1.2-2.45-1.8-4.04-1.8
			h-18.86c-1.6,0-2.95,0.6-4.04,1.8c-1.1,1.2-1.65,2.59-1.65,4.19V670.88z"/>
	</g>
	<g class="st6">
		<path class="st2" d="M-1608,905.58v-30.83h55.38v71.24c0,26.34-12.38,39.51-37.12,39.51h-37.72c-24.75,0-37.12-13.17-37.12-39.51
			V825.36c0-26.34,12.37-39.51,37.12-39.51h37.72c24.74,0,37.12,13.17,37.12,39.51v18.26h-39.81v-23.35c0-1.6-0.55-2.99-1.65-4.19
			c-1.1-1.2-2.45-1.8-4.04-1.8h-18.86c-1.6,0-2.95,0.6-4.04,1.8c-1.1,1.2-1.65,2.59-1.65,4.19v130.51c0,1.6,0.55,2.99,1.65,4.19
			c1.09,1.2,2.44,1.8,4.04,1.8h18.86c1.59,0,2.94-0.6,4.04-1.8c1.09-1.2,1.65-2.59,1.65-4.19v-45.2H-1608z"/>
		<path class="st2" d="M-1452.65,785.84c24.74,0,37.12,13.17,37.12,39.51v157.15h-41.91v-64.96h-30.23v64.96h-41.91V825.36
			c0-26.34,12.37-39.51,37.12-39.51H-1452.65z M-1487.67,885.22h30.23v-64.96c0-1.6-0.55-2.99-1.65-4.19c-1.1-1.2-2.45-1.8-4.04-1.8
			h-18.86c-1.6,0-2.95,0.6-4.04,1.8c-1.1,1.2-1.65,2.59-1.65,4.19V885.22z"/>
		<path class="st2" d="M-1342.8,982.51h-41.91V825.36c0-26.34,12.37-39.51,37.12-39.51h22.15c14.56,0,24.94,4.79,31.13,14.37
			c5.79-9.58,16.16-14.37,31.13-14.37h22.15c24.74,0,37.12,13.17,37.12,39.51v157.15h-41.91V821.76c0-1.59-0.55-2.99-1.65-4.19
			c-1.1-1.2-2.45-1.8-4.04-1.8h-16.16c-1.6,0-2.95,0.6-4.04,1.8c-1.1,1.2-1.65,2.6-1.65,4.19v160.74h-41.91V821.76
			c0-1.59-0.55-2.99-1.65-4.19c-1.1-1.2-2.45-1.8-4.04-1.8h-16.16c-1.6,0-2.95,0.6-4.04,1.8c-1.1,1.2-1.65,2.6-1.65,4.19V982.51z"/>
		<path class="st2" d="M-1133.27,947.78h46.4v34.72h-88.3V788.84h88.3v34.12h-46.4v45.5h43.4v32.93h-43.4V947.78z"/>
		<path class="st2" d="M-958.76,878.94v32.03h-102.07v-32.03H-958.76z"/>
		<path class="st2" d="M-858.48,788.84h41.91v157.15c0,26.34-12.38,39.51-37.12,39.51h-37.12c-24.75,0-37.12-13.17-37.12-39.51
			V788.84h41.91v160.74c0,1.6,0.55,2.99,1.65,4.19c1.09,1.2,2.44,1.8,4.04,1.8h16.16c1.59,0,2.94-0.6,4.04-1.8
			c1.09-1.2,1.65-2.59,1.65-4.19V788.84z"/>
		<path class="st2" d="M-712.41,788.84c24.74,0,37.12,13.17,37.12,39.51v38.61c0,26.34-12.38,39.51-37.12,39.51h-33.82v76.03h-41.91
			V788.84H-712.41z M-717.2,871.75v-48.19c0-1.6-0.55-2.99-1.65-4.19c-1.1-1.2-2.45-1.8-4.04-1.8h-23.35v60.17h23.35
			c1.59,0,2.94-0.6,4.04-1.8C-717.75,874.75-717.2,873.35-717.2,871.75z"/>
	</g>
</g>
</svg>
